<svg xmlns="http://www.w3.org/2000/svg" viewBox="0 0 400 400"><defs><style>.d{fill:#fff;}</style></defs><g id="a"><g><path class="d" d="M2.82,303.91c0-8.18,5.48-14.05,14.94-14.05s14.94,5.87,14.94,14.05-5.44,14.05-14.94,14.05-14.94-5.87-14.94-14.05Zm26.17,0c0-6.79-4.25-10.89-11.23-10.89s-11.19,4.09-11.19,10.89,4.25,10.89,11.19,10.89,11.23-4.09,11.23-10.89Z"/><path class="d" d="M42.04,293.56v8.41h14.32v3.17h-14.32v12.27h-3.71v-27.02h20.15l1.24,3.17h-17.68Z"/><path class="d" d="M68.98,293.56v8.41h14.32v3.17h-14.32v12.27h-3.71v-27.02h20.15l1.24,3.17h-17.68Z"/><path class="d" d="M92.22,317.42v-27.02h3.71v27.02h-3.71Z"/><path class="d" d="M101.56,303.91c0-8.18,5.83-14.05,14.9-14.05,5.52,0,9.88,2.12,12.55,4.98v.81l-2.05,1.93c-2.82-2.78-6.14-4.55-10.5-4.55-6.72,0-11.16,4.09-11.16,10.89s4.44,10.89,11.16,10.89c4.56,0,7.64-1.62,10.5-4.55l2.01,1.89v.81c-2.74,3.05-6.83,5.02-12.51,5.02-9.07,0-14.9-5.87-14.9-14.05Z"/><path class="d" d="M134.37,317.42v-27.02h3.71v27.02h-3.71Z"/><path class="d" d="M159.27,290.4l11.97,26.21v.81h-3.59l-3.05-6.95h-15.63l-3.05,6.95h-3.59v-.81l12-26.21h4.94Zm-8.92,16.91h12.85l-6.02-13.78h-.81l-6.02,13.78Z"/><path class="d" d="M179.19,314.25h18.06l-1.24,3.17h-20.54v-27.02h3.71v23.85Z"/><path class="d" d="M223,317.42l-11.97-26.21v-.81h3.67l10.23,23.43h.81l10.19-23.43h3.71v.81l-12,26.21h-4.63Z"/><path class="d" d="M247.78,314.25h18.99l-1.24,3.17h-21.46v-27.02h21.08l1.24,3.17h-18.6v8.41h14.28v3.17h-14.28v9.11Z"/><path class="d" d="M294.18,290.4h3.71v27.02h-3.71v-12.7h-18.06v12.7h-3.71v-27.02h3.71v11.16h18.06v-11.16Z"/><path class="d" d="M304.76,317.42v-27.02h3.71v27.02h-3.71Z"/><path class="d" d="M314.1,303.91c0-8.18,5.83-14.05,14.9-14.05,5.52,0,9.88,2.12,12.55,4.98v.81l-2.05,1.93c-2.82-2.78-6.14-4.55-10.5-4.55-6.72,0-11.16,4.09-11.16,10.89s4.44,10.89,11.16,10.89c4.56,0,7.64-1.62,10.5-4.55l2.01,1.89v.81c-2.74,3.05-6.83,5.02-12.51,5.02-9.07,0-14.9-5.87-14.9-14.05Z"/><path class="d" d="M350.61,314.25h18.06l-1.24,3.17h-20.54v-27.02h3.71v23.85Z"/><path class="d" d="M378.02,314.25h18.99l-1.24,3.17h-21.46v-27.02h21.08l1.24,3.17h-18.6v8.41h14.28v3.17h-14.28v9.11Z"/></g><g><path class="d" d="M153.96,142.48c53.96,7.74,57.43,12.86,70.9,12.86,10.45,0,19.07-3.22,25.56-8.62-20.31-5.36-63.75-6.5-96.46-4.24h0Z"/><path class="d" d="M258.91,101.18c-52.18-3.71-102.23,4.95-147.23,23.69,54.93,3.29,95.97,8.01,142.76,17.97,5.66-6.38,9.09-14.76,9.09-23.96,0-6.43-1.68-12.46-4.63-17.69h0Z"/><path class="d" d="M225.92,82.71c-27.74,0-63.77,10.3-91.62,20.61,38.01-7.36,85.22-9.26,121.47-6.83-5.49-6.62-14.12-13.78-29.85-13.78h0Z"/><path class="d" d="M117.71,207.11c2.29,1.19,6.73,2.75,10.46,2.75,3.25,0,5.02-1.16,5.24-2.89,.22-1.73-.88-2.96-4.25-4.54-4.26-2.02-7.6-4.97-7.03-9.37,.95-7.28,8.63-12.11,18.63-12.11,4.52,0,7.23,.71,9.08,1.46l-2.44,7.92c-1.57-.72-4.69-1.81-8.1-1.81-3.01,0-5.23,1.23-5.48,3.1-.19,1.44,1.24,2.67,4.24,4.04,3.95,1.95,8.03,4.76,7.39,9.66-1.05,8.07-9.15,12.4-19.38,12.4-4.92,0-8.43-1.01-10.93-2.26l2.57-8.34h0Z"/><path class="d" d="M183.53,195.51c-.71,6.06-4.87,14.35-10.56,14.35-3.61,0-5.3-2.74-4.82-6.85,.58-5.48,4.63-14.2,10.62-14.2,4.18,0,5.14,3.46,4.76,6.7h0Zm-2.2-14.56c-10.1,0-20.42,8.18-23.56,18.28-3.14,10.1,1.92,18.49,12.02,18.49,11.17,0,21.01-8.37,24.15-18.48,3.14-10.1-2.51-18.29-12.61-18.29h0Z"/><path class="d" d="M205.13,208.11c1.03,1.08,2.55,1.74,4.57,1.74,5.55,0,11.34-8.36,12.15-15.28,.33-2.81-.47-5.77-3.86-5.77-3.89,0-8.5,4.9-10.61,11.83l-2.25,7.49h0Zm-17.52,23.16l11.01-35.91c1.29-4.18,2.91-10.02,3.77-13.63h9.35l-1.32,5.44h.14c3.27-3.94,7.78-6.23,12.04-6.23,7.64,0,10.6,6.13,9.75,13.34-1.45,12.26-10.97,23.43-23.22,23.43-2.89,0-5.25-.72-6.39-1.44h-.12l-4.62,15h-10.38Z"/><path class="d" d="M254.38,188.51c-4.83,0-8.04,3.97-9.15,7.28,8.07,.07,12.24-1.08,12.62-4.25,.21-1.8-1.08-3.03-3.46-3.03h0Zm4.76,26.94c-4.36,1.77-8.28,2.26-12.18,2.26-10.09,0-14.61-5.7-13.53-14.85,1.27-10.74,10.37-21.92,23.13-21.92,7.14,0,11.79,3.97,11.02,10.53-1.06,9.01-10.17,12.26-24.26,11.9-.12,1.01,.05,2.6,.66,3.6,1.16,1.8,3.42,2.88,6.45,2.88,3.82,0,8.29-1.37,11.26-2.74l-2.56,8.34h0Z"/><path class="d" d="M264.66,216.92l7.26-23.72c1.33-4.48,2.33-8.36,3.11-11.46h9.35l-1.32,5.44h.14c3.86-4.61,8.41-6.24,13.09-6.24,5.77,0,8.6,3.53,7.88,9.59-.19,1.59-.79,4.25-1.28,5.98l-6.29,20.41h-10.38s4.71-15.28,6.06-19.68c1.53-5.01,1.57-8.44-2.25-8.44-3.61,0-7.53,3.9-9.98,11.88-2.45,7.98-5,16.24-5,16.24h-10.38Z"/><path class="d" d="M120.82,181.73l-7.26,23.72c-1.33,4.48-2.33,8.36-3.11,11.46h-9.34l1.32-5.44h-.14c-3.86,4.61-8.41,6.24-13.09,6.24-5.77,0-8.6-3.53-7.88-9.59,.19-1.59,.79-4.25,1.28-5.98l6.29-20.41h10.38s-4.71,15.28-6.06,19.68c-1.53,5.01-1.57,8.44,2.25,8.44,3.61,0,7.53-3.9,9.98-11.88,2.45-7.98,5-16.24,5-16.24h10.38Z"/><path class="d" d="M314.67,173.95c0-.7-.44-1.05-1.21-1.04h-1.64v2.09h1.56c.88-.01,1.29-.34,1.29-1.05h0Zm.82,0c0,.92-.55,1.55-1.41,1.75l1.39,2.63h-.96l-1.34-2.56h-1.33v2.58h-.8l-.03-6.15h2.5c1.11-.02,1.98,.53,1.98,1.75h0Zm2.35,1.39c-.01-2.87-2.11-4.85-4.84-4.83-2.73,.01-4.8,2.02-4.79,4.89,.02,2.87,2.11,4.85,4.84,4.83,2.73-.01,4.8-2.02,4.79-4.89h0Zm.76,0c.02,3.32-2.38,5.58-5.54,5.6-3.16,.02-5.58-2.22-5.6-5.54-.02-3.32,2.38-5.58,5.54-5.6,3.16-.02,5.58,2.22,5.6,5.54h0Z"/></g></g><g id="b"/><g id="c"/></svg>